<svg xmlns="http://www.w3.org/2000/svg" xmlns:xlink="http://www.w3.org/1999/xlink" viewBox="0 0 30.75 30.75"><defs><style>.cls-1{stroke:#fff;stroke-miterlimit:10;stroke-width:0.75px;fill:url(#linear-gradient);}.cls-2{fill:url(#linear-gradient-2);}.cls-3{opacity:0.08;}.cls-4,.cls-5{fill:#fff;}.cls-5{opacity:0.8;isolation:isolate;}.cls-6{fill:#c9c9c9;}</style><linearGradient id="linear-gradient" x1="5.71" y1="705.04" x2="25.07" y2="685.68" gradientTransform="translate(0 -680.16)" gradientUnits="userSpaceOnUse"><stop offset="0" stop-color="#604099"/><stop offset="1" stop-color="#2551a4"/></linearGradient><linearGradient id="linear-gradient-2" x1="23.84" y1="708.81" x2="26.4" y2="706.25" xlink:href="#linear-gradient"/></defs><g id="Layer_2" data-name="Layer 2"><g id="Layer_1-2" data-name="Layer 1"><path class="cls-1" d="M21.29,28.2a4.52,4.52,0,0,1,4.52-4.51,5.17,5.17,0,0,1,1.78.35,14.94,14.94,0,1,0-6.22,5.09A3.66,3.66,0,0,1,21.29,28.2Z"/><circle class="cls-2" cx="25.1" cy="27.38" r="1.99"/><g class="cls-3"><path d="M17,7.58l-5,8.25c-.32.5-.07.89.5.89h3.27a.73.73,0,0,1,.79.64.63.63,0,0,1-.07.35l-2.39,6.76c-.18.57-.11.6.25.11l6.16-9.36c.32-.49.1-.89-.47-.89h-4a.71.71,0,0,1-.78-.6.77.77,0,0,1,.07-.39L17.2,7.65C17.38,7.12,17.27,7.08,17,7.58Z"/></g><path class="cls-4" d="M16.53,7.08l-5,8.25c-.32.5-.08.89.49.89h3.28a.72.72,0,0,1,.78.64.61.61,0,0,1-.07.35L13.64,24c-.17.57-.1.61.25.11l6.16-9.35c.32-.47.11-.89-.46-.89H15.64a.71.71,0,0,1-.79-.61.64.64,0,0,1,.08-.39l1.85-5.69c.14-.5,0-.57-.25-.07Z"/><rect class="cls-4" x="8.63" y="22.58" width="0.18" height="2.56"/><rect class="cls-4" x="7.42" y="23.76" width="2.56" height="0.18"/><polygon class="cls-5" points="3.11 10.85 5.07 10.57 4.39 12.41 3.11 10.85"/><path class="cls-4" d="M28.13,12.59a1.91,1.91,0,0,0-2.53,0l.28.36a1.43,1.43,0,0,1,1.93,0,2.21,2.21,0,0,0,2.41.35,2.76,2.76,0,0,1-.07-.49A1.67,1.67,0,0,1,28.13,12.59Z"/><path class="cls-4" d="M28.13,15.12a1.91,1.91,0,0,0-2.53,0l.28.35a1.43,1.43,0,0,1,1.93,0,2.24,2.24,0,0,0,2.56.29v-.57A1.65,1.65,0,0,1,28.13,15.12Z"/><path class="cls-4" d="M28.13,13.84a1.91,1.91,0,0,0-2.53,0l.28.39a1.43,1.43,0,0,1,1.93,0,2.23,2.23,0,0,0,2.56.28c0-.18,0-.35,0-.53A1.67,1.67,0,0,1,28.13,13.84Z"/><path class="cls-6" d="M27.81,13a2.21,2.21,0,0,0,2.41.35,2.76,2.76,0,0,1-.07-.49,1.68,1.68,0,0,1-2-.25,1.91,1.91,0,0,0-2.53,0l.28.35A1.47,1.47,0,0,1,27.81,13Z"/><path class="cls-6" d="M30.37,15.22a1.74,1.74,0,0,1-2.28-.1,1.91,1.91,0,0,0-2.53,0l.29.35a1.42,1.42,0,0,1,1.92,0,2.24,2.24,0,0,0,2.56.29v-.32C30.33,15.33,30.37,15.33,30.37,15.22Z"/><path class="cls-6" d="M27.81,14.23a2.23,2.23,0,0,0,2.56.28c0-.18,0-.35,0-.53a1.77,1.77,0,0,1-2.2-.14,1.91,1.91,0,0,0-2.53,0l.28.39A1.43,1.43,0,0,1,27.81,14.23Z"/></g></g></svg>